<?xml version="1.0"?>
<svg xmlns="http://www.w3.org/2000/svg" id="Layer_3" enable-background="new 0 0 64 64" height="512px" viewBox="0 0 64 64" width="512px"><g><g><path d="m62 29h-7v-27c0-.552-.447-1-1-1h-18c-.553 0-1 .448-1 1v14c0 .552.447 1 1 1h13v12h-7c-.553 0-1 .448-1 1v9h-19c-.553 0-1 .448-1 1v1.111c-.974-.996-2.24-1.702-3.66-1.979 1.026-1.077 1.66-2.53 1.66-4.132v-2c0-3.309-2.691-6-6-6s-6 2.691-6 6v2c0 1.602.634 3.055 1.66 4.132-3.22.627-5.66 3.467-5.66 6.868v3h-1c-.553 0-1 .448-1 1v12c0 .552.447 1 1 1h60c.553 0 1-.448 1-1v-32c0-.552-.447-1-1-1zm-25-14v-12h12v12zm14-12h2v26h-2zm-36 38c0 1.103-.897 2-2 2s-2-.897-2-2zm-6-8c0-2.206 1.794-4 4-4s4 1.794 4 4v2c0 2.206-1.794 4-4 4s-4-1.794-4-4zm-4 13c0-2.418 1.726-4.439 4.01-4.9.055 2.159 1.818 3.9 3.99 3.9s3.935-1.741 3.99-3.9c2.284.461 4.01 2.482 4.01 4.9v3h-2v-4h-2v4h-8v-4h-2v4h-2zm56 15h-58v-10h19c.553 0 1-.448 1-1v-4-5h19c.553 0 1-.448 1-1v-9h18z" data-original="#000000" class="active-path" data-old_color="#000000" fill="#1273EB"/><path d="m22.707 16.707 6.293-6.293v3.586h2v-6c0-.552-.447-1-1-1h-6v2h3.586l-6.293 6.293z" data-original="#000000" class="active-path" data-old_color="#000000" fill="#1273EB"/><path d="m18.586 17h2.828v2h-2.828z" transform="matrix(.707 -.707 .707 .707 -6.87 19.414)" data-original="#000000" class="active-path" data-old_color="#000000" fill="#1273EB"/><path d="m15.586 20h2.828v2h-2.828z" transform="matrix(.707 -.707 .707 .707 -9.87 18.172)" data-original="#000000" class="active-path" data-old_color="#000000" fill="#1273EB"/><path d="m26 20h3.586l-6.293 6.293 1.414 1.414 6.293-6.293v3.586h2v-6c0-.552-.447-1-1-1h-6z" data-original="#000000" class="active-path" data-old_color="#000000" fill="#1273EB"/><path d="m20.586 28h2.828v2h-2.828z" transform="matrix(.707 -.707 .707 .707 -14.062 24.05)" data-original="#000000" class="active-path" data-old_color="#000000" fill="#1273EB"/></g></g> </svg>
