<?xml version="1.0"?>
<svg xmlns="http://www.w3.org/2000/svg" id="Layer_3" enable-background="new 0 0 64 64" height="512px" viewBox="0 0 64 64" width="512px" class=""><g><g><path d="m62 57h-3v-13c0-.553-.447-1-1-1h-6c-.553 0-1 .447-1 1v13h-2v-23c0-.553-.447-1-1-1h-6c-.553 0-1 .447-1 1v23h-2v-29c0-.553-.447-1-1-1h-6c-.553 0-1 .447-1 1v29h-2v-35c0-.553-.447-1-1-1h-6c-.553 0-1 .447-1 1v35h-2v-41c0-.553-.447-1-1-1h-6c-.553 0-1 .447-1 1v41h-4v-49c0-.553-.447-1-1-1h-4c-.553 0-1 .447-1 1v54c0 .553.447 1 1 1h60c.553 0 1-.447 1-1v-4c0-.553-.447-1-1-1zm-9-12h4v12h-4zm-10-10h4v22h-4zm-10-6h4v28h-4zm-10-6h4v34h-4zm-10-6h4v40h-4zm48 44h-58v-52h2v49c0 .553.447 1 1 1h55z" data-original="#000000" class="active-path" data-old_color="#000000" fill="#69E781"/><path d="m24 6.414 32.293 32.293 1.414-1.414-32.293-32.293h3.586v-2h-6c-.553 0-1 .447-1 1v6h2z" data-original="#000000" class="active-path" data-old_color="#000000" fill="#69E781"/><path d="m52 8h2v8c0 .553.447 1 1 1h4c.553 0 1-.447 1-1v-8h2c.404 0 .77-.243.924-.617.155-.374.069-.804-.217-1.09l-5-5c-.391-.391-1.023-.391-1.414 0l-5 5c-.286.286-.372.716-.217 1.09.154.374.52.617.924.617zm5-4.586 2.586 2.586h-.586c-.553 0-1 .447-1 1v8h-2v-8c0-.553-.447-1-1-1h-.586z" data-original="#000000" class="active-path" data-old_color="#000000" fill="#69E781"/><path d="m54 19h6v2h-6z" data-original="#000000" class="active-path" data-old_color="#000000" fill="#69E781"/><path d="m54 23h6v2h-6z" data-original="#000000" class="active-path" data-old_color="#000000" fill="#69E781"/></g></g> </svg>
