<?xml version="1.0"?>
<svg xmlns="http://www.w3.org/2000/svg" id="Layer_3" enable-background="new 0 0 64 64" height="512px" viewBox="0 0 64 64" width="512px"><g><g><path d="m20 63c.552 0 1-.448 1-1v-2c0-1.302-.839-2.402-2-2.816v-17.184c2.206 0 4-1.794 4-4v-14c0-2.757-2.243-5-5-5h-1.54c.519-.578.926-1.254 1.19-2h.35c1.654 0 3-1.346 3-3 0-.883-.391-1.67-1-2.22v-.78c0-4.411-3.589-8-8-8s-8 3.589-8 8v.78c-.609.55-1 1.337-1 2.22 0 1.654 1.346 3 3 3h.35c.265.746.672 1.422 1.19 2h-1.54c-2.757 0-5 2.243-5 5v14c0 2.206 1.794 4 4 4v17.184c-1.161.414-2 1.514-2 2.816v2c0 .552.448 1 1 1zm-6-44c0 1.103-.897 2-2 2s-2-.897-2-2zm4-6v-2c.551 0 1 .449 1 1s-.449 1-1 1zm-13-1c0-.551.449-1 1-1v2c-.551 0-1-.449-1-1zm1-3c0-3.309 2.691-6 6-6s6 2.691 6 6h-1-1.586l-1.707-1.707c-.391-.391-1.023-.391-1.414 0l-1.707 1.707h-3.586zm2 4v-2h3c.265 0 .52-.105.707-.293l1.293-1.293 1.293 1.293c.187.188.442.293.707.293h1v2c0 2.206-1.794 4-4 4s-4-1.794-4-4zm-2 6h2c0 2.206 1.794 4 4 4s4-1.794 4-4h2c1.654 0 3 1.346 3 3v12h-2v-11h-2v11h-10v-11h-2v11h-2v-12c0-1.654 1.346-3 3-3zm-3 17h2v2c-1.103 0-2-.897-2-2zm8 25h-6v-1c0-.551.449-1 1-1h5zm0-21v17h-4v-21h10v21h-4v-17zm8 21h-6v-2h5c.551 0 1 .449 1 1zm0-23v-2h2c0 1.103-.897 2-2 2z" data-original="#000000" class="active-path" data-old_color="#000000" fill="#FFCE00"/><path d="m63 25v-9c0-.552-.448-1-1-1h-12c-.552 0-1 .448-1 1 0 1.632.786 3.084 2 3.998v5.002c0 3.309 2.691 6 6 6s6-2.691 6-6zm-6 4c-2.206 0-4-1.794-4-4v-4.101c.323.066.658.101 1 .101h3v1c0 2.262 1.51 4.178 3.575 4.793-.658 1.308-2.013 2.207-3.575 2.207zm4-4.171c-1.164-.413-2-1.525-2-2.829v-2c0-.552-.448-1-1-1h-4c-1.304 0-2.416-.836-2.829-2h9.829z" data-original="#000000" class="active-path" data-old_color="#000000" fill="#FFCE00"/><path d="m51 36v5h-4v-1c0-1.654-1.346-3-3-3h-5.246l-1.793-6.275c-.122-.429-.515-.725-.961-.725h-4c-.312 0-.605.146-.795.393-.189.248-.252.569-.17.87l2.656 9.737h-1.691c-.552 0-1 .448-1 1v4c0 .552.448 1 1 1h1v16h2v-16h10.409c-.056.094-.116.184-.166.284l-3.918 9.716h-.325c-1.654 0-3 1.346-3 3v2c0 .552.448 1 1 1h8c.552 0 1-.448 1-1v-3.818l2.693-7.182h.307v3c0 .552.448 1 1 1h2v8h2v-8h2v8h2v-8h2c.552 0 1-.448 1-1v-6-1-15c0-.552-.448-1-1-1h-5-1c-2.757 0-5 2.243-5 5zm0 8c0-.551.449-1 1-1h3c.552 0 1-.448 1-1v-4c0-.551.449-1 1-1s1 .449 1 1v7h-6-1zm-17.691-12h1.937l1.793 6.275c.122.429.515.725.961.725h6c.551 0 1 .449 1 1v1h-9.236zm-.309 11h16.184c-.112.314-.184.648-.184 1v1h-.146-15.854zm13 18h-6v-1c0-.551.449-1 1-1h5zm7-8v-2h7c.352 0 .686-.072 1-.184v2.184zm8-20v14 1c0 .551-.449 1-1 1h-10c-.417 0-.79.259-.937.649l-2.756 7.351h-2.826l3.584-8.895c.341-.681 1.027-1.105 1.789-1.105h1.146 2 7c.552 0 1-.448 1-1v-8c0-1.654-1.346-3-3-3s-3 1.346-3 3v3h-1v-5c0-1.654 1.346-3 3-3z" data-original="#000000" class="active-path" data-old_color="#000000" fill="#FFCE00"/><path d="m38.293 21.707c.191.191.447.293.707.293.129 0 .259-.025.383-.076.373-.155.617-.52.617-.924v-2h4c1.654 0 3-1.346 3-3v-8c0-1.654-1.346-3-3-3h-14c-1.654 0-3 1.346-3 3v8c0 1.654 1.346 3 3 3h5.586zm-9.293-5.707v-8c0-.551.449-1 1-1h14c.551 0 1 .449 1 1v8c0 .551-.449 1-1 1h-5c-.552 0-1 .448-1 1v.586l-1.293-1.293c-.187-.188-.442-.293-.707-.293h-6c-.551 0-1-.449-1-1z" data-original="#000000" class="active-path" data-old_color="#000000" fill="#FFCE00"/><path d="m31 9h12v2h-12z" data-original="#000000" class="active-path" data-old_color="#000000" fill="#FFCE00"/><path d="m31 13h12v2h-12z" data-original="#000000" class="active-path" data-old_color="#000000" fill="#FFCE00"/></g></g> </svg>
